<mxfile host="Electron" agent="Mozilla/5.0 (Windows NT 10.0; Win64; x64) AppleWebKit/537.36 (KHTML, like Gecko) draw.io/25.0.2 Chrome/128.0.6613.186 Electron/32.2.5 Safari/537.36" version="25.0.2">
  <diagram name="PÃ¡gina-1" id="BRSLsnb3ouQV8tfrdJ5A">
    <mxGraphModel dx="1434" dy="836" grid="1" gridSize="10" guides="1" tooltips="1" connect="1" arrows="1" fold="1" page="1" pageScale="1" pageWidth="827" pageHeight="1169" math="0" shadow="0">
      <root>
        <mxCell id="0" />
        <mxCell id="1" parent="0" />
        <mxCell id="BwAubyFd1qrzFPcPnI6L-1" value="&lt;div&gt;ChessQuestionsManagement&lt;/div&gt;&lt;div&gt;&lt;br&gt;&lt;/div&gt;&lt;div&gt;&lt;br&gt;&lt;/div&gt;&lt;div&gt;&lt;br&gt;&lt;/div&gt;&lt;div&gt;&lt;br&gt;&lt;/div&gt;&lt;div&gt;&lt;br&gt;&lt;/div&gt;&lt;div&gt;&lt;br&gt;&lt;/div&gt;&lt;div&gt;&lt;br&gt;&lt;/div&gt;&lt;div&gt;&lt;br&gt;&lt;/div&gt;&lt;div&gt;&lt;br&gt;&lt;/div&gt;&lt;div&gt;&lt;br&gt;&lt;/div&gt;&lt;div&gt;&lt;br&gt;&lt;/div&gt;&lt;div&gt;&lt;br&gt;&lt;/div&gt;&lt;div&gt;&lt;br&gt;&lt;/div&gt;&lt;div&gt;&lt;br&gt;&lt;/div&gt;&lt;div&gt;&lt;br&gt;&lt;/div&gt;&lt;div&gt;&lt;br&gt;&lt;/div&gt;&lt;div&gt;&lt;br&gt;&lt;/div&gt;&lt;div&gt;&lt;br&gt;&lt;/div&gt;&lt;div&gt;&lt;br&gt;&lt;/div&gt;&lt;div&gt;&lt;br&gt;&lt;/div&gt;&lt;div&gt;&lt;br&gt;&lt;/div&gt;&lt;div&gt;&lt;br&gt;&lt;/div&gt;&lt;div&gt;&lt;br&gt;&lt;/div&gt;&lt;div&gt;&lt;br&gt;&lt;/div&gt;&lt;div&gt;&lt;br&gt;&lt;/div&gt;&lt;div&gt;&lt;br&gt;&lt;/div&gt;&lt;div&gt;&lt;br&gt;&lt;/div&gt;&lt;div&gt;&lt;br&gt;&lt;/div&gt;&lt;div&gt;&lt;br&gt;&lt;/div&gt;&lt;div&gt;&lt;br&gt;&lt;/div&gt;&lt;div&gt;&lt;br&gt;&lt;/div&gt;&lt;div&gt;&lt;br&gt;&lt;/div&gt;&lt;div&gt;&lt;br&gt;&lt;/div&gt;&lt;div&gt;&lt;br&gt;&lt;/div&gt;&lt;div&gt;&lt;br&gt;&lt;/div&gt;&lt;div&gt;&lt;br&gt;&lt;/div&gt;&lt;div&gt;&lt;br&gt;&lt;/div&gt;&lt;div&gt;&lt;br&gt;&lt;/div&gt;&lt;div&gt;&lt;br&gt;&lt;/div&gt;&lt;div&gt;&lt;br&gt;&lt;/div&gt;&lt;div&gt;&lt;br&gt;&lt;/div&gt;&lt;div&gt;&lt;br&gt;&lt;/div&gt;" style="rounded=1;whiteSpace=wrap;html=1;" vertex="1" parent="1">
          <mxGeometry x="270" y="90" width="350" height="640" as="geometry" />
        </mxCell>
        <mxCell id="BwAubyFd1qrzFPcPnI6L-2" value="CreateChessQuestion" style="ellipse;whiteSpace=wrap;html=1;" vertex="1" parent="1">
          <mxGeometry x="365" y="560" width="160" height="80" as="geometry" />
        </mxCell>
        <mxCell id="BwAubyFd1qrzFPcPnI6L-3" value="DeleteChessQuestion" style="ellipse;whiteSpace=wrap;html=1;" vertex="1" parent="1">
          <mxGeometry x="365" y="430" width="160" height="80" as="geometry" />
        </mxCell>
        <mxCell id="BwAubyFd1qrzFPcPnI6L-4" value="ChangeHas/NoHasSeen" style="ellipse;whiteSpace=wrap;html=1;" vertex="1" parent="1">
          <mxGeometry x="365" y="290" width="160" height="80" as="geometry" />
        </mxCell>
        <mxCell id="BwAubyFd1qrzFPcPnI6L-5" value="GetAllChessQuestions" style="ellipse;whiteSpace=wrap;html=1;" vertex="1" parent="1">
          <mxGeometry x="365" y="150" width="160" height="80" as="geometry" />
        </mxCell>
        <mxCell id="BwAubyFd1qrzFPcPnI6L-8" value="UnregisteredUser" style="shape=umlActor;verticalLabelPosition=bottom;verticalAlign=top;html=1;outlineConnect=0;" vertex="1" parent="1">
          <mxGeometry x="100" y="690" width="70" height="100" as="geometry" />
        </mxCell>
        <mxCell id="BwAubyFd1qrzFPcPnI6L-9" value="Secretary" style="shape=umlActor;verticalLabelPosition=bottom;verticalAlign=top;html=1;outlineConnect=0;" vertex="1" parent="1">
          <mxGeometry x="100" y="310" width="70" height="100" as="geometry" />
        </mxCell>
        <mxCell id="BwAubyFd1qrzFPcPnI6L-10" value="President" style="shape=umlActor;verticalLabelPosition=bottom;verticalAlign=top;html=1;outlineConnect=0;" vertex="1" parent="1">
          <mxGeometry x="100" y="150" width="70" height="100" as="geometry" />
        </mxCell>
        <mxCell id="BwAubyFd1qrzFPcPnI6L-13" value="RegisteredUser" style="shape=umlActor;verticalLabelPosition=bottom;verticalAlign=top;html=1;outlineConnect=0;" vertex="1" parent="1">
          <mxGeometry x="100" y="510" width="70" height="100" as="geometry" />
        </mxCell>
        <mxCell id="BwAubyFd1qrzFPcPnI6L-14" value="" style="endArrow=none;html=1;rounded=0;" edge="1" parent="1" source="BwAubyFd1qrzFPcPnI6L-9" target="BwAubyFd1qrzFPcPnI6L-5">
          <mxGeometry width="50" height="50" relative="1" as="geometry">
            <mxPoint x="210" y="200" as="sourcePoint" />
            <mxPoint x="440" y="400" as="targetPoint" />
          </mxGeometry>
        </mxCell>
        <mxCell id="BwAubyFd1qrzFPcPnI6L-15" value="" style="endArrow=none;html=1;rounded=0;" edge="1" parent="1" source="BwAubyFd1qrzFPcPnI6L-9" target="BwAubyFd1qrzFPcPnI6L-4">
          <mxGeometry width="50" height="50" relative="1" as="geometry">
            <mxPoint x="180" y="209" as="sourcePoint" />
            <mxPoint x="375" y="203" as="targetPoint" />
          </mxGeometry>
        </mxCell>
        <mxCell id="BwAubyFd1qrzFPcPnI6L-16" value="" style="endArrow=none;html=1;rounded=0;entryX=0.219;entryY=0.938;entryDx=0;entryDy=0;entryPerimeter=0;" edge="1" parent="1" source="BwAubyFd1qrzFPcPnI6L-8" target="BwAubyFd1qrzFPcPnI6L-3">
          <mxGeometry width="50" height="50" relative="1" as="geometry">
            <mxPoint x="170" y="539.91" as="sourcePoint" />
            <mxPoint x="410.81688427119684" y="469.9954206954589" as="targetPoint" />
          </mxGeometry>
        </mxCell>
        <mxCell id="BwAubyFd1qrzFPcPnI6L-17" value="" style="endArrow=none;html=1;rounded=0;" edge="1" parent="1" source="BwAubyFd1qrzFPcPnI6L-8" target="BwAubyFd1qrzFPcPnI6L-2">
          <mxGeometry width="50" height="50" relative="1" as="geometry">
            <mxPoint x="210" y="590" as="sourcePoint" />
            <mxPoint x="386" y="500" as="targetPoint" />
          </mxGeometry>
        </mxCell>
        <mxCell id="BwAubyFd1qrzFPcPnI6L-18" value="" style="endArrow=block;html=1;rounded=0;exitX=0.5;exitY=0;exitDx=0;exitDy=0;exitPerimeter=0;endFill=0;" edge="1" parent="1" source="BwAubyFd1qrzFPcPnI6L-8" target="BwAubyFd1qrzFPcPnI6L-13">
          <mxGeometry width="50" height="50" relative="1" as="geometry">
            <mxPoint x="390" y="450" as="sourcePoint" />
            <mxPoint x="135" y="600" as="targetPoint" />
          </mxGeometry>
        </mxCell>
        <mxCell id="BwAubyFd1qrzFPcPnI6L-19" value="" style="endArrow=block;html=1;rounded=0;exitX=0.5;exitY=0;exitDx=0;exitDy=0;exitPerimeter=0;endFill=0;" edge="1" parent="1" source="BwAubyFd1qrzFPcPnI6L-9" target="BwAubyFd1qrzFPcPnI6L-10">
          <mxGeometry width="50" height="50" relative="1" as="geometry">
            <mxPoint x="220" y="390" as="sourcePoint" />
            <mxPoint x="190" y="280" as="targetPoint" />
            <Array as="points" />
          </mxGeometry>
        </mxCell>
        <mxCell id="BwAubyFd1qrzFPcPnI6L-20" value="" style="endArrow=block;html=1;rounded=0;endFill=0;" edge="1" parent="1" source="BwAubyFd1qrzFPcPnI6L-13" target="BwAubyFd1qrzFPcPnI6L-9">
          <mxGeometry width="50" height="50" relative="1" as="geometry">
            <mxPoint x="145" y="370" as="sourcePoint" />
            <mxPoint x="145" y="210" as="targetPoint" />
          </mxGeometry>
        </mxCell>
      </root>
    </mxGraphModel>
  </diagram>
</mxfile>
